<?xml version="1.0" encoding="UTF-8" standalone="no"?>
<!-- Created with Inkscape (http://www.inkscape.org/) -->

<svg
   width="100"
   height="100"
   viewBox="0 0 26.458333 26.458333"
   version="1.1"
   id="svg1"
   xml:space="preserve"
   inkscape:version="1.3.2 (091e20ef0f, 2023-11-25, custom)"
   sodipodi:docname="admin.svg"
   xmlns:inkscape="http://www.inkscape.org/namespaces/inkscape"
   xmlns:sodipodi="http://sodipodi.sourceforge.net/DTD/sodipodi-0.dtd"
   xmlns="http://www.w3.org/2000/svg"
   xmlns:svg="http://www.w3.org/2000/svg"><sodipodi:namedview
     id="namedview1"
     pagecolor="#ffffff"
     bordercolor="#000000"
     borderopacity="0.25"
     inkscape:showpageshadow="2"
     inkscape:pageopacity="0.0"
     inkscape:pagecheckerboard="0"
     inkscape:deskcolor="#d1d1d1"
     inkscape:document-units="px"
     inkscape:zoom="5.9962655"
     inkscape:cx="19.929071"
     inkscape:cy="57.20227"
     inkscape:window-width="1920"
     inkscape:window-height="1052"
     inkscape:window-x="1920"
     inkscape:window-y="0"
     inkscape:window-maximized="1"
     inkscape:current-layer="layer1" /><defs
     id="defs1" /><g
     inkscape:label="Capa 1"
     inkscape:groupmode="layer"
     id="layer1"><path
       id="path2"
       style="fill:#4b4b4b;fill-opacity:1;stroke:none;stroke-width:0.363273;stroke-dasharray:none;stroke-opacity:0"
       d="M 13.082405 1.9647379 A 6.5669222 6.5669222 0 0 0 6.5153645 8.5317789 A 6.5669222 6.5669222 0 0 0 13.082405 15.09882 A 6.5669222 6.5669222 0 0 0 19.649446 8.5317789 A 6.5669222 6.5669222 0 0 0 13.082405 1.9647379 z M 16.513204 16.130798 A 8.3399916 8.3399916 0 0 1 13.082405 16.872355 A 8.3399916 8.3399916 0 0 1 9.7678791 16.174206 A 10.13495 8.865345 0 0 0 8.1462727 16.816028 A 10.13495 8.865345 0 0 0 3.0788818 24.493595 L 13.213664 24.493595 L 17.424259 24.493595 C 17.407856 24.454707 17.390615 24.415958 17.37775 24.375773 C 17.301497 24.137582 17.278419 23.80333 17.516243 23.557218 L 17.856791 23.205302 C 17.829831 23.143203 17.804771 23.080814 17.781343 23.017199 L 17.302303 23.017199 C 16.96686 23.017199 16.755507 22.76683 16.646012 22.54281 C 16.536517 22.318789 16.486849 22.063633 16.486849 21.785233 C 16.486849 21.506835 16.534732 21.252449 16.643945 21.028174 C 16.753158 20.803898 16.965475 20.5512 17.302303 20.5512 L 17.78341 20.5512 C 17.806491 20.489048 17.832402 20.428444 17.858858 20.367749 L 17.51831 20.015316 C 17.279793 19.768487 17.303718 19.435818 17.379817 19.197278 C 17.455918 18.958736 17.595203 18.742025 17.785477 18.545121 C 17.975753 18.348217 18.184869 18.203713 18.415413 18.125508 C 18.645958 18.047303 18.966862 18.025325 19.203996 18.270719 L 19.544543 18.623152 C 19.603767 18.595507 19.663201 18.569204 19.72386 18.545121 L 19.72386 18.049544 C 19.72386 17.943369 19.748739 17.850729 19.786389 17.767907 A 10.13495 8.865345 0 0 0 18.281054 16.816028 A 10.13495 8.865345 0 0 0 16.513204 16.130798 z " /><path
       id="rect2"
       style="display:inline;fill:#4b4b4b;fill-opacity:1;stroke-width:3.19335;stroke-linejoin:round;stroke-opacity:0;paint-order:stroke fill markers"
       d="m 20.915519,17.652152 c -0.420847,0 -0.759644,0.176742 -0.759644,0.396359 v 0.77928 c 0,0.0033 3.69e-4,0.0065 5.17e-4,0.0098 a 2.9529328,3.0558122 0 0 0 -0.716752,0.31006 c -0.0029,-0.0033 -0.0057,-0.0066 -0.0088,-0.0098 l -0.53278,-0.551389 c -0.150063,-0.155291 -0.510119,-0.032 -0.807703,0.275952 -0.297584,0.307951 -0.416713,0.680834 -0.26665,0.836125 l 0.532784,0.550871 c 0.003,0.0031 0.0062,0.0059 0.0093,0.0088 a 2.9529328,3.0558122 0 0 0 -0.299203,0.74156 c -0.0037,-2.08e-4 -0.0072,-5.16e-4 -0.01088,-5.16e-4 h -0.753442 c -0.212221,0 -0.382923,0.350489 -0.382923,0.785998 0,0.435509 0.170702,0.785999 0.382923,0.785999 h 0.753442 c 0.0034,0 0.0069,-3.29e-4 0.01031,-5.17e-4 a 2.9529328,3.0558122 0 0 0 0.29869,0.742073 c -0.0032,0.003 -0.0068,0.0056 -0.0099,0.0088 l -0.532262,0.551391 c -0.150064,0.155292 -0.03145,0.528174 0.266134,0.836125 0.297584,0.307951 0.658155,0.430728 0.808219,0.275436 l 0.532404,-0.550855 c 0.0029,-0.003 0.0056,-0.0062 0.0082,-0.0092 a 2.9529328,3.0558122 0 0 0 0.716752,0.310058 c -1.73e-4,0.0036 -5.17e-4,0.0068 -5.17e-4,0.01031 v 0.779281 c 0,0.219616 0.338797,0.396358 0.759643,0.396358 0.420847,0 0.759644,-0.176742 0.759644,-0.396358 v -0.779284 c 0,-0.0018 -4.73e-4,-0.0034 -5.17e-4,-0.0052 a 2.9529328,3.0558122 0 0 0 0.721922,-0.30903 c 0.0013,0.0013 0.0023,0.0028 0.0037,0.0041 l 0.53278,0.551385 c 0.150064,0.155291 0.510119,0.03252 0.807703,-0.275435 0.297583,-0.307952 0.416197,-0.680834 0.266133,-0.836125 l -0.532295,-0.551376 c -0.0011,-0.0012 -0.0024,-0.0024 -0.0037,-0.0037 a 2.9529328,3.0558122 0 0 0 0.299211,-0.746723 c 0.0017,4.7e-5 0.0034,5.16e-4 0.0052,5.16e-4 h 0.753442 c 0.212223,0 0.382923,-0.350489 0.382923,-0.785998 0,-0.435509 -0.1707,-0.785999 -0.382923,-0.785999 h -0.753441 c -0.0016,0 -0.0031,-3.8e-5 -0.0047,0 A 2.9529328,3.0558122 0 0 0 23.469777,20.25456 c 0.0013,-0.0013 0.0029,-0.0024 0.0041,-0.0037 l 0.532267,-0.550869 c 0.150064,-0.155292 0.03145,-0.528174 -0.266133,-0.836125 -0.297584,-0.307952 -0.658156,-0.431244 -0.80822,-0.275952 l -0.532266,0.551387 c -0.0011,0.0012 -0.0025,0.0024 -0.0037,0.0037 a 2.9529328,3.0558122 0 0 0 -0.721399,-0.309026 c 6e-5,-0.002 5.17e-4,-0.0041 5.17e-4,-0.0062 v -0.779282 c 0,-0.219616 -0.338797,-0.396358 -0.759644,-0.396358 z m 0,2.614827 a 1.467899,1.5190402 0 0 1 1.468127,1.519288 1.467899,1.5190402 0 0 1 -1.468127,1.519287 1.467899,1.5190402 0 0 1 -1.468128,-1.519287 1.467899,1.5190402 0 0 1 1.468128,-1.519288 z" /></g></svg>
