<?xml version="1.0" encoding="UTF-8" standalone="no"?>
<!-- Created with Inkscape (http://www.inkscape.org/) -->

<svg
   width="100"
   height="100"
   viewBox="0 0 26.458333 26.458333"
   version="1.1"
   id="svg1"
   inkscape:version="1.3.2 (091e20ef0f, 2023-11-25, custom)"
   sodipodi:docname="estats.svg"
   xmlns:inkscape="http://www.inkscape.org/namespaces/inkscape"
   xmlns:sodipodi="http://sodipodi.sourceforge.net/DTD/sodipodi-0.dtd"
   xmlns="http://www.w3.org/2000/svg"
   xmlns:svg="http://www.w3.org/2000/svg">
  <sodipodi:namedview
     id="namedview1"
     pagecolor="#ffffff"
     bordercolor="#000000"
     borderopacity="0.25"
     inkscape:showpageshadow="2"
     inkscape:pageopacity="0.0"
     inkscape:pagecheckerboard="0"
     inkscape:deskcolor="#d1d1d1"
     inkscape:document-units="px"
     inkscape:zoom="5.9962655"
     inkscape:cx="25.265726"
     inkscape:cy="39.19106"
     inkscape:window-width="1920"
     inkscape:window-height="1052"
     inkscape:window-x="1920"
     inkscape:window-y="0"
     inkscape:window-maximized="1"
     inkscape:current-layer="layer1" />
  <defs
     id="defs1" />
  <g
     inkscape:label="Capa 1"
     inkscape:groupmode="layer"
     id="layer1">
    <path
       id="rect1"
       style="fill:#4b4b4b;fill-opacity:1;stroke-width:2.90594;stroke-linejoin:round;stroke-opacity:0;paint-order:stroke fill markers"
       d="M 20.445263 8.5452147 L 18.516699 10.473779 L 18.516699 13.785722 L 18.516699 17.03927 L 18.516699 22.330936 C 18.516699 22.771214 18.870688 23.125203 19.310966 23.125203 L 21.434867 23.125203 C 21.875145 23.125203 22.229134 22.771214 22.229134 22.330936 L 22.229134 17.03927 L 22.229134 13.785722 L 22.229134 9.2764362 C 22.051751 9.3541236 21.856877 9.3978758 21.652425 9.3978759 C 21.088245 9.3978761 20.688006 9.0191977 20.445263 8.5452147 z M 10.906828 11.89178 L 8.9916991 12.997656 L 8.9916991 13.785722 L 8.9916991 20.21427 L 8.9916991 22.330936 C 8.9916991 22.771214 9.3456892 23.125203 9.7859659 23.125203 L 11.909867 23.125203 C 12.350145 23.125203 12.704134 22.771214 12.704134 22.330936 L 12.704134 20.21427 L 12.704134 13.785722 L 12.704134 12.606465 L 10.906828 11.89178 z M 16.991211 11.999784 L 16.076021 12.914974 C 15.770195 13.2208 15.354073 13.352049 14.952059 13.327352 C 14.73783 13.343812 14.513772 13.326066 14.299902 13.241052 L 13.754199 13.024011 L 13.754199 13.785722 L 13.754199 21.272603 L 13.754199 22.330936 C 13.754199 22.771214 14.108188 23.125203 14.548466 23.125203 L 16.672367 23.125203 C 17.112645 23.125203 17.466634 22.771214 17.466634 22.330936 L 17.466634 21.272603 L 17.466634 13.785722 L 17.466634 12.727388 C 17.466634 12.40075 17.271573 12.122269 16.991211 11.999784 z M 7.9225137 13.614673 L 4.2291992 15.747359 L 4.2291992 22.330936 C 4.2291992 22.771214 4.5831889 23.125203 5.0234659 23.125203 L 7.1473673 23.125203 C 7.5876442 23.125203 7.941634 22.771214 7.941634 22.330936 L 7.941634 13.785722 C 7.941634 13.726887 7.9345175 13.669803 7.9225137 13.614673 z " />
    <path
       id="rect11"
       style="fill:#4b4b4b;fill-opacity:1;stroke-width:3.072;stroke-linejoin:round;stroke-opacity:0;paint-order:stroke fill markers"
       sodipodi:type="inkscape:offset"
       inkscape:radius="0"
       inkscape:original="M 15.607422 -17.009766 C 15.304872 -17.082716 14.984997 -16.996124 14.759766 -16.78125 C 14.739336 -16.76176 14.719952 -16.742293 14.701172 -16.720703 C 14.693272 -16.711703 14.685224 -16.700656 14.677734 -16.691406 C 14.666304 -16.677196 14.655221 -16.663477 14.644531 -16.648438 C 14.632671 -16.631767 14.622218 -16.615316 14.611328 -16.597656 C 14.606628 -16.590056 14.600183 -16.581959 14.595703 -16.574219 L 13.265625 -14.269531 C 13.010667 -13.827932 13.159964 -13.266676 13.601562 -13.011719 C 14.043162 -12.756761 14.604418 -12.906057 14.859375 -13.347656 L 15.080078 -13.730469 L 16.787109 -7.3535156 L 13.736328 -4.9433594 C 13.633573 -4.8621444 13.554103 -4.7624693 13.496094 -4.6542969 C 13.416284 -4.5178722 13.369141 -4.3595468 13.369141 -4.1894531 L 13.369141 4.296875 C 13.369141 4.8067902 13.779148 5.2167969 14.289062 5.2167969 C 14.798977 5.2167969 15.210938 4.8067902 15.210938 4.296875 L 15.210938 -3.7617188 L 18.28125 -6.1875 C 18.404953 -6.285272 18.496089 -6.4083156 18.554688 -6.5429688 C 18.713711 -6.7599436 18.776529 -7.042982 18.701172 -7.3242188 L 16.857422 -14.205078 L 17.238281 -13.986328 C 17.67988 -13.731371 18.241137 -13.880667 18.496094 -14.322266 C 18.751051 -14.763865 18.599802 -15.325121 18.158203 -15.580078 L 15.853516 -16.910156 L 15.853516 -16.912109 C 15.828036 -16.926819 15.801571 -16.939142 15.775391 -16.951172 C 15.748651 -16.963402 15.720669 -16.974885 15.693359 -16.984375 C 15.668589 -16.992975 15.644241 -16.999459 15.619141 -17.005859 C 15.615841 -17.006691 15.612675 -17.008966 15.609375 -17.009766 C 15.609375 -17.009766 15.607422 -17.009766 15.607422 -17.009766 z "
       d="m 15.607422,-17.009766 c -0.30255,-0.07295 -0.622425,0.01364 -0.847656,0.228516 -0.02043,0.01949 -0.03981,0.03896 -0.05859,0.06055 -0.0079,0.009 -0.01595,0.02005 -0.02344,0.0293 -0.01143,0.01421 -0.02251,0.02793 -0.0332,0.04297 -0.01186,0.01667 -0.02231,0.03312 -0.0332,0.05078 -0.0047,0.0076 -0.01115,0.0157 -0.01563,0.02344 l -1.330078,2.304688 c -0.254958,0.441599 -0.105661,1.002855 0.335937,1.257812 0.4416,0.254958 1.002856,0.105662 1.257813,-0.335937 l 0.220703,-0.382813 1.707031,6.3769534 -3.050781,2.4101562 c -0.102755,0.081215 -0.182225,0.1808901 -0.240234,0.2890625 -0.07981,0.1364247 -0.126953,0.2947501 -0.126953,0.4648438 V 4.296875 c 0,0.5099152 0.410007,0.9199219 0.919921,0.9199219 0.509915,0 0.921876,-0.4100067 0.921876,-0.9199219 V -3.7617188 L 18.28125,-6.1875 c 0.123703,-0.097772 0.214839,-0.2208156 0.273438,-0.3554688 0.159023,-0.2169748 0.221841,-0.5000132 0.146484,-0.78125 l -1.84375,-6.8808592 0.380859,0.21875 c 0.441599,0.254957 1.002856,0.105661 1.257813,-0.335938 0.254957,-0.441599 0.103708,-1.002855 -0.337891,-1.257812 l -2.304687,-1.330078 v -0.002 c -0.02548,-0.01471 -0.05195,-0.02703 -0.07813,-0.03906 -0.02674,-0.01223 -0.05472,-0.02371 -0.08203,-0.0332 -0.02477,-0.0086 -0.04912,-0.01508 -0.07422,-0.02148 -0.0033,-8.32e-4 -0.0065,-0.0031 -0.0098,-0.0039 z"
       transform="rotate(60)" />
  </g>
</svg>
