<?xml version="1.0" encoding="UTF-8" standalone="no"?>
<!-- Created with Inkscape (http://www.inkscape.org/) -->

<svg
   width="100"
   height="100"
   viewBox="0 0 26.458333 26.458333"
   version="1.1"
   id="svg1"
   inkscape:version="1.3.2 (091e20ef0f, 2023-11-25, custom)"
   sodipodi:docname="inventario.svg"
   xmlns:inkscape="http://www.inkscape.org/namespaces/inkscape"
   xmlns:sodipodi="http://sodipodi.sourceforge.net/DTD/sodipodi-0.dtd"
   xmlns="http://www.w3.org/2000/svg"
   xmlns:svg="http://www.w3.org/2000/svg">
  <sodipodi:namedview
     id="namedview1"
     pagecolor="#ffffff"
     bordercolor="#000000"
     borderopacity="0.25"
     inkscape:showpageshadow="2"
     inkscape:pageopacity="0.0"
     inkscape:pagecheckerboard="0"
     inkscape:deskcolor="#d1d1d1"
     inkscape:document-units="px"
     inkscape:zoom="6.94"
     inkscape:cx="12.9683"
     inkscape:cy="52.737752"
     inkscape:window-width="1920"
     inkscape:window-height="1052"
     inkscape:window-x="1920"
     inkscape:window-y="0"
     inkscape:window-maximized="1"
     inkscape:current-layer="layer1" />
  <defs
     id="defs1" />
  <g
     inkscape:label="Capa 1"
     inkscape:groupmode="layer"
     id="layer1">
    <path
       id="rect1"
       style="fill:#4b4b4b;stroke-width:3.072;stroke-linejoin:round;stroke-dasharray:none;stroke-opacity:0;paint-order:stroke fill markers"
       d="m 6.293156,3.860917 c -0.74682,0 -1.3477213,0.601418 -1.3477213,1.3482381 V 23.697949 c 0,0.746819 0.6009013,1.348238 1.3477213,1.348238 h 13.872021 c 0.74682,0 1.347721,-0.601419 1.347721,-1.348238 V 5.2091551 c 0,-0.7468201 -0.600901,-1.3482381 -1.347721,-1.3482381 h -2.661336 v 1.83503 h 2.333191 c 0.133441,0 0.240812,0.1073716 0.240812,0.2408122 V 22.970345 c 0,0.133439 -0.107371,0.240812 -0.240812,0.240812 H 6.6213014 c -0.1334408,0 -0.2408122,-0.107373 -0.2408122,-0.240812 V 5.9367592 c 0,-0.1334406 0.1073714,-0.2408122 0.2408122,-0.2408122 H 8.955009 v -1.83503 z" />
    <path
       id="rect3"
       style="fill:#4b4b4b;fill-opacity:1;stroke-width:3.072;stroke-linejoin:round;stroke-dasharray:none;stroke-opacity:0;paint-order:stroke fill markers"
       sodipodi:type="inkscape:offset"
       inkscape:radius="0"
       inkscape:original="M 12.074219 1.2460938 C 11.506639 1.2460938 11.046502 1.6884474 11.015625 2.2480469 L 10.083984 2.2480469 C 9.6653365 2.2480469 9.3300781 2.5852591 9.3300781 3.0039062 L 9.3300781 5.953125 C 9.3300781 6.3717722 9.6653365 6.7089844 10.083984 6.7089844 L 16.373047 6.7089844 C 16.791695 6.7089844 17.128906 6.3717722 17.128906 5.953125 L 17.128906 3.0039062 C 17.128906 2.585259 16.791695 2.2480469 16.373047 2.2480469 L 15.443359 2.2480469 C 15.412479 1.6884474 14.950392 1.2460938 14.382812 1.2460938 L 12.074219 1.2460938 z M 13.228516 1.9804688 A 0.59281629 0.59281629 0 0 1 13.822266 2.5742188 A 0.59281629 0.59281629 0 0 1 13.228516 3.1660156 A 0.59281629 0.59281629 0 0 1 12.636719 2.5742188 A 0.59281629 0.59281629 0 0 1 13.228516 1.9804688 z "
       d="m 12.074219,1.2460938 c -0.56758,0 -1.027717,0.4423536 -1.058594,1.0019531 h -0.931641 c -0.4186475,0 -0.7539059,0.3372122 -0.7539059,0.7558593 V 5.953125 c 0,0.4186472 0.3352584,0.7558594 0.7539059,0.7558594 h 6.289063 c 0.418648,0 0.755859,-0.3372122 0.755859,-0.7558594 V 3.0039062 c 0,-0.4186472 -0.337211,-0.7558593 -0.755859,-0.7558593 H 15.443359 C 15.412479,1.6884474 14.950392,1.2460938 14.382812,1.2460938 Z m 1.154297,0.734375 a 0.59281629,0.59281629 0 0 1 0.59375,0.59375 0.59281629,0.59281629 0 0 1 -0.59375,0.5917968 0.59281629,0.59281629 0 0 1 -0.591797,-0.5917968 0.59281629,0.59281629 0 0 1 0.591797,-0.59375 z"
       transform="translate(0,0.1660521)" />
    <g
       id="g6"
       transform="translate(0,0.1660521)">
      <path
         id="rect4"
         style="fill:#4b4b4b;fill-opacity:1;stroke-width:2.17871;stroke-linejoin:round;stroke-dasharray:none;stroke-opacity:0;paint-order:stroke fill markers"
         d="m 8.4837634,8.3400593 c -0.3072608,0 -0.5544881,0.2472273 -0.5544881,0.5544881 v 1.7792196 c 0,0.307261 0.2472273,0.555005 0.5544881,0.555005 h 1.7792196 c 0.307261,0 0.555005,-0.247744 0.555005,-0.555005 V 8.8945474 c 0,-0.3072608 -0.247744,-0.5544881 -0.555005,-0.5544881 z m 0,0.4862752 h 1.7792196 c 0.04669,0 0.06873,0.021521 0.06873,0.068213 v 1.7792195 c 0,0.04669 -0.02204,0.06821 -0.06873,0.06821 H 8.4837634 c -0.046692,0 -0.068213,-0.02152 -0.068213,-0.06821 V 8.8945474 c 0,-0.046693 0.02152,-0.068213 0.068213,-0.068213 z" />
      <rect
         style="fill:#4b4b4b;fill-opacity:1;stroke-width:2.62846;stroke-linejoin:round;stroke-dasharray:none;stroke-opacity:0;paint-order:stroke fill markers"
         id="rect5"
         width="6.7081857"
         height="0.59281647"
         x="11.820872"
         y="8.9729576"
         ry="0.29640824" />
      <rect
         style="fill:#4b4b4b;fill-opacity:1;stroke-width:1.54205;stroke-linejoin:round;stroke-dasharray:none;stroke-opacity:0;paint-order:stroke fill markers"
         id="rect6"
         width="2.3088639"
         height="0.59281647"
         x="11.820872"
         y="10.002586"
         ry="0.29640824" />
    </g>
    <g
       id="g8"
       transform="translate(2.5e-7,3.8702189)">
      <path
         id="path6"
         style="fill:#4b4b4b;fill-opacity:1;stroke-width:2.17871;stroke-linejoin:round;stroke-dasharray:none;stroke-opacity:0;paint-order:stroke fill markers"
         d="m 8.4837634,8.3400593 c -0.3072608,0 -0.5544881,0.2472273 -0.5544881,0.5544881 v 1.7792196 c 0,0.307261 0.2472273,0.555005 0.5544881,0.555005 h 1.7792196 c 0.307261,0 0.555005,-0.247744 0.555005,-0.555005 V 8.8945474 c 0,-0.3072608 -0.247744,-0.5544881 -0.555005,-0.5544881 z m 0,0.4862752 h 1.7792196 c 0.04669,0 0.06873,0.021521 0.06873,0.068213 v 1.7792195 c 0,0.04669 -0.02204,0.06821 -0.06873,0.06821 H 8.4837634 c -0.046692,0 -0.068213,-0.02152 -0.068213,-0.06821 V 8.8945474 c 0,-0.046693 0.02152,-0.068213 0.068213,-0.068213 z" />
      <rect
         style="fill:#4b4b4b;fill-opacity:1;stroke-width:2.62846;stroke-linejoin:round;stroke-dasharray:none;stroke-opacity:0;paint-order:stroke fill markers"
         id="rect7"
         width="6.7081857"
         height="0.59281647"
         x="11.820872"
         y="8.9729576"
         ry="0.29640824" />
      <rect
         style="fill:#4b4b4b;fill-opacity:1;stroke-width:1.54205;stroke-linejoin:round;stroke-dasharray:none;stroke-opacity:0;paint-order:stroke fill markers"
         id="rect8"
         width="2.3088639"
         height="0.59281647"
         x="11.820872"
         y="10.002586"
         ry="0.29640824" />
    </g>
    <g
       id="g10"
       transform="translate(2.5e-7,7.5743858)">
      <path
         id="path8"
         style="fill:#4b4b4b;fill-opacity:1;stroke-width:2.17871;stroke-linejoin:round;stroke-dasharray:none;stroke-opacity:0;paint-order:stroke fill markers"
         d="m 8.4837634,8.3400593 c -0.3072608,0 -0.5544881,0.2472273 -0.5544881,0.5544881 v 1.7792196 c 0,0.307261 0.2472273,0.555005 0.5544881,0.555005 h 1.7792196 c 0.307261,0 0.555005,-0.247744 0.555005,-0.555005 V 8.8945474 c 0,-0.3072608 -0.247744,-0.5544881 -0.555005,-0.5544881 z m 0,0.4862752 h 1.7792196 c 0.04669,0 0.06873,0.021521 0.06873,0.068213 v 1.7792195 c 0,0.04669 -0.02204,0.06821 -0.06873,0.06821 H 8.4837634 c -0.046692,0 -0.068213,-0.02152 -0.068213,-0.06821 V 8.8945474 c 0,-0.046693 0.02152,-0.068213 0.068213,-0.068213 z" />
      <rect
         style="fill:#4b4b4b;fill-opacity:1;stroke-width:2.62846;stroke-linejoin:round;stroke-dasharray:none;stroke-opacity:0;paint-order:stroke fill markers"
         id="rect9"
         width="6.7081857"
         height="0.59281647"
         x="11.820872"
         y="8.9729576"
         ry="0.29640824" />
      <rect
         style="fill:#4b4b4b;fill-opacity:1;stroke-width:1.54205;stroke-linejoin:round;stroke-dasharray:none;stroke-opacity:0;paint-order:stroke fill markers"
         id="rect10"
         width="2.3088639"
         height="0.59281647"
         x="11.820872"
         y="10.002586"
         ry="0.29640824" />
    </g>
  </g>
</svg>
