<?xml version="1.0" encoding="UTF-8" standalone="no"?>
<!-- Created with Inkscape (http://www.inkscape.org/) -->

<svg
   width="100"
   height="100"
   viewBox="0 0 26.458333 26.458333"
   version="1.1"
   id="svg1"
   inkscape:version="1.3.2 (091e20ef0f, 2023-11-25, custom)"
   sodipodi:docname="password.svg"
   xmlns:inkscape="http://www.inkscape.org/namespaces/inkscape"
   xmlns:sodipodi="http://sodipodi.sourceforge.net/DTD/sodipodi-0.dtd"
   xmlns="http://www.w3.org/2000/svg"
   xmlns:svg="http://www.w3.org/2000/svg">
  <sodipodi:namedview
     id="namedview1"
     pagecolor="#ffffff"
     bordercolor="#000000"
     borderopacity="0.25"
     inkscape:showpageshadow="2"
     inkscape:pageopacity="0.0"
     inkscape:pagecheckerboard="0"
     inkscape:deskcolor="#d1d1d1"
     inkscape:document-units="px"
     inkscape:zoom="2.6775"
     inkscape:cx="-43.510738"
     inkscape:cy="54.528478"
     inkscape:window-width="1920"
     inkscape:window-height="1052"
     inkscape:window-x="1920"
     inkscape:window-y="0"
     inkscape:window-maximized="1"
     inkscape:current-layer="layer1" />
  <defs
     id="defs1" />
  <g
     inkscape:label="Capa 1"
     inkscape:groupmode="layer"
     id="layer1">
    <path
       id="rect1"
       style="fill:#4b4b4b;stroke-width:2.64583;stroke-linejoin:round;stroke-opacity:0;paint-order:stroke fill markers"
       d="m 5.3572957,10.157261 c -1.4477908,0 -2.6132772,1.165487 -2.6132772,2.613278 v 9.089367 c 0,1.447791 1.1654864,2.613277 2.6132772,2.613277 H 21.101037 c 1.447791,0 2.613277,-1.165486 2.613277,-2.613277 v -9.089367 c 0,-1.447791 -1.165486,-2.613278 -2.613277,-2.613278 z m 7.8718703,3.490227 a 1.7730689,1.7730689 0 0 1 1.773019,1.773535 1.7730689,1.7730689 0 0 1 -0.765845,1.452624 v 3.738274 c 0,0.205519 -0.165518,0.371036 -0.371037,0.371036 H 12.59303 c -0.205519,0 -0.371037,-0.165517 -0.371037,-0.371036 v -3.738274 a 1.7730689,1.7730689 0 0 1 -0.765845,-1.452624 1.7730689,1.7730689 0 0 1 1.773018,-1.773535 z" />
    <g
       id="g5">
      <path
         id="path3"
         style="fill:#4b4b4b;fill-opacity:1;stroke-width:2.64583;stroke-linejoin:round;stroke-opacity:0;paint-order:stroke fill markers"
         d="M 13.229166,1.9851504 A 4.4436173,4.4436173 0 0 0 11.007597,2.5804629 4.4436173,4.4436173 0 0 0 8.7855101,6.4288068 h 1.3130979 a 3.1306887,3.1306887 0 0 1 1.565279,-2.7114624 3.1306887,3.1306887 0 0 1 3.130559,0 3.1306887,3.1306887 0 0 1 1.565279,2.7114624 h 1.313098 A 4.4436173,4.4436173 0 0 0 15.450736,2.5804629 4.4436173,4.4436173 0 0 0 13.229166,1.9851504 Z" />
      <rect
         style="fill:#4b4b4b;fill-opacity:1;stroke-width:2.13361;stroke-linejoin:round;stroke-opacity:0;paint-order:stroke fill markers"
         id="rect4"
         width="1.3156626"
         height="3.8824186"
         x="8.7855101"
         y="6.3850274"
         ry="0" />
      <rect
         style="fill:#4b4b4b;fill-opacity:1;stroke-width:2.13361;stroke-linejoin:round;stroke-opacity:0;paint-order:stroke fill markers"
         id="rect5"
         width="1.3156626"
         height="3.8824186"
         x="16.357161"
         y="6.3850274"
         ry="0" />
    </g>
  </g>
</svg>
