<?xml version="1.0" encoding="UTF-8" standalone="no"?>
<!-- Created with Inkscape (http://www.inkscape.org/) -->

<svg
   width="100"
   height="100"
   viewBox="0 0 26.458333 26.458333"
   version="1.1"
   id="svg1"
   inkscape:version="1.3.2 (091e20e, 2023-11-25, custom)"
   sodipodi:docname="pedidos.svg"
   xmlns:inkscape="http://www.inkscape.org/namespaces/inkscape"
   xmlns:sodipodi="http://sodipodi.sourceforge.net/DTD/sodipodi-0.dtd"
   xmlns="http://www.w3.org/2000/svg"
   xmlns:svg="http://www.w3.org/2000/svg">
  <sodipodi:namedview
     id="namedview1"
     pagecolor="#ffffff"
     bordercolor="#000000"
     borderopacity="0.25"
     inkscape:showpageshadow="2"
     inkscape:pageopacity="0.0"
     inkscape:pagecheckerboard="0"
     inkscape:deskcolor="#d1d1d1"
     inkscape:document-units="px"
     showguides="false"
     inkscape:zoom="8.4359982"
     inkscape:cx="37.16217"
     inkscape:cy="64.189203"
     inkscape:window-width="1920"
     inkscape:window-height="1051"
     inkscape:window-x="-9"
     inkscape:window-y="-9"
     inkscape:window-maximized="1"
     inkscape:current-layer="layer1" />
  <defs
     id="defs1" />
  <g
     inkscape:label="Capa 1"
     inkscape:groupmode="layer"
     id="layer1">
    <path
       id="rect7"
       style="fill:#4b4b4b;fill-opacity:1;stroke:none;stroke-width:0.424419"
       d="M 13.227217,1.310355 2.5493198,8.1056469 13.230141,14.903863 23.907063,8.1075957 Z m -10e-7,0.5068926 9.88344,6.290348 L 13.23014,14.396969 3.3457254,8.105646 Z" />
    <path
       id="rect6"
       style="fill:#4b4b4b;fill-opacity:1;stroke:none;stroke-width:0.467813;stroke-dasharray:none"
       d="m 23.877649,8.079327 -10.678872,6.804065 v 10.264586 l 10.678872,-6.804067 z m -0.44353,0.8110293 v 9.2108317 l -9.790835,6.237709 v -9.210832 z" />
    <path
       id="path8"
       style="fill:#4b4b4b;fill-opacity:1;stroke:none;stroke-width:0.467813;stroke-dasharray:none"
       d="M 2.5512681,8.079327 13.230141,14.883392 V 25.147978 L 2.5512681,18.343911 Z m 0.44353,0.8110293 v 9.2108317 l 9.7908359,6.237709 v -9.210832 z" />
    <rect
       style="fill:#4b4b4b;fill-opacity:1;stroke:none;stroke-width:0.430718;stroke-dasharray:none"
       id="rect9"
       width="3.1792569"
       height="6.8801112"
       x="-0.70767188"
       y="14.619227"
       transform="matrix(0.84214298,-0.53925431,0.84214298,0.53925431,0,0)" />
    <rect
       style="fill:#4b4b4b;fill-opacity:1;stroke:none;stroke-width:0.430718;stroke-dasharray:none"
       id="rect9-6"
       width="3.1792569"
       height="6.8801112"
       x="-0.7108984"
       y="9.3893919"
       transform="matrix(0.84214298,-0.53925431,0.84214298,0.53925431,0,0)" />
    <rect
       style="fill:#4b4b4b;fill-opacity:1;stroke:none;stroke-width:0.334977;stroke-dasharray:none"
       id="rect10"
       width="3.1106582"
       height="4.2531943"
       x="20.821745"
       y="23.332253"
       transform="matrix(0.8440508,-0.53626322,0,1,0,0)" />
  </g>
</svg>
